<svg version="1.1" xmlns="http://www.w3.org/2000/svg" xmlns:xlink="http://www.w3.org/1999/xlink" width="800px" height="800px" viewBox="0,0,256,256"><g fill="#852eba" fill-rule="nonzero" stroke="none" stroke-width="1" stroke-linecap="butt" stroke-linejoin="miter" stroke-miterlimit="10" stroke-dasharray="" stroke-dashoffset="0" font-family="none" font-weight="none" font-size="none" text-anchor="none" style="mix-blend-mode: normal"><g transform="translate(-0.15816,-0.00333) scale(10.66667,10.66667)"><path d="M15.71,12.71c2.00965,-1.58113 2.79639,-4.26218 1.95979,-6.67853c-0.83661,-2.41635 -3.11271,-4.03696 -5.66979,-4.03696c-2.55708,0 -4.83318,1.62062 -5.66979,4.03696c-0.83661,2.41635 -0.04986,5.09741 1.95979,6.67853c-3.4229,1.37135 -5.81338,4.5151 -6.22,8.18c-0.06075,0.55228 0.33772,1.04925 0.89,1.11c0.55228,0.06075 1.04925,-0.33772 1.11,-0.89c0.45463,-4.04726 3.87729,-7.10697 7.95,-7.10697c4.07271,0 7.49537,3.05971 7.95,7.10697c0.05632,0.50893 0.48797,0.89311 1,0.89h0.11c0.54564,-0.06278 0.93852,-0.55389 0.88,-1.1c-0.40858,-3.67569 -2.81249,-6.82577 -6.25,-8.19zM12,12c-2.20914,0 -4,-1.79086 -4,-4c0,-2.20914 1.79086,-4 4,-4c2.20914,0 4,1.79086 4,4c0,2.20914 -1.79086,4 -4,4z"></path></g></g></svg>